<svg width="36" height="36" viewBox="0 0 36 36" fill="none" xmlns="http://www.w3.org/2000/svg">
<path fill-rule="evenodd" clip-rule="evenodd" d="M18 3C17.7602 3 17.5659 3.19436 17.5659 3.43411V4.73646H16.2016C15.9618 4.73646 15.7675 4.93082 15.7675 5.17057C15.7675 5.41032 15.9618 5.60468 16.2016 5.60468H17.5659V8.78613C15.0292 9.00604 13.0388 11.1349 13.0388 13.7286V13.8728C12.5437 13.6603 11.9983 13.5427 11.4254 13.5427C9.23393 13.5427 7.45738 15.3192 7.45738 17.5107V29.6667H15.5194V29.6666H20.4806V29.6667H28.5426H28.5427H31.0233V19.1241H28.5427V19.124H31.0233C29.6532 19.124 28.5426 18.0134 28.5426 16.6434V17.4977C28.5356 15.3122 26.7618 13.5427 24.5746 13.5427C24.0017 13.5427 23.4563 13.6603 22.9613 13.8728V13.7286C22.9613 11.1349 20.9708 9.00601 18.4341 8.78612V5.60468H19.7985C20.0382 5.60468 20.2326 5.41032 20.2326 5.17057C20.2326 4.93082 20.0382 4.73646 19.7985 4.73646H18.4341V3.43411C18.4341 3.19436 18.2397 3 18 3ZM7.45737 16.6434V19.124H4.97675C6.34675 19.124 7.45737 18.0134 7.45737 16.6434ZM7.45736 19.1241H4.97675V29.6667H7.45736V19.1241ZM17.969 11.062C17.5409 11.062 17.1938 11.409 17.1938 11.8372V18.5038H18.7442V11.8372C18.7442 11.409 18.3971 11.062 17.969 11.062ZM11.3644 20.5194C11.3644 20.0913 11.7114 19.7442 12.1396 19.7442C12.5677 19.7442 12.9148 20.0913 12.9148 20.5194V27.186H11.3644V20.5194ZM15.3954 22.969C15.3954 21.5304 16.5615 20.3643 18 20.3643C19.4385 20.3643 20.6047 21.5304 20.6047 22.969V27.186H15.3954V22.969ZM24.6357 20.5194C24.6357 20.0913 24.2886 19.7442 23.8605 19.7442C23.4324 19.7442 23.0853 20.0913 23.0853 20.5194V27.186H24.6357V20.5194ZM9.65893 20.9844C9.2308 20.9844 8.88373 21.3315 8.88373 21.7596V27.186H10.4341V21.7596C10.4341 21.3315 10.0871 20.9844 9.65893 20.9844ZM27.1163 21.7596C27.1163 21.3315 26.7692 20.9844 26.3411 20.9844C25.9129 20.9844 25.5659 21.3315 25.5659 21.7596V27.186H27.1163V21.7596ZM20.4496 14.1628C20.8777 14.1628 21.2248 14.5099 21.2248 14.938V18.5039H19.6744V14.938C19.6744 14.5099 20.0215 14.1628 20.4496 14.1628ZM16.2636 14.938C16.2636 14.5099 15.9165 14.1628 15.4884 14.1628C15.0603 14.1628 14.7132 14.5099 14.7132 14.938V18.5039H16.2636V14.938Z" fill="#008DD2"/>
</svg>
