<svg width="23" height="23" viewBox="0 0 23 23" fill="none" xmlns="http://www.w3.org/2000/svg">
<path d="M7.11719 11.65C8.01759 13.5094 9.52112 15.0091 11.3828 15.9047C11.5201 15.9697 11.672 15.9979 11.8235 15.9864C11.975 15.9749 12.1209 15.9241 12.2469 15.8391L14.9812 14.0125C15.1021 13.9306 15.2417 13.8806 15.387 13.8672C15.5324 13.8538 15.6788 13.8775 15.8125 13.936L20.9313 16.1344C21.1062 16.2072 21.2524 16.3355 21.3472 16.4996C21.4421 16.6636 21.4804 16.8543 21.4563 17.0422C21.294 18.3085 20.6759 19.4723 19.7177 20.3158C18.7594 21.1593 17.5266 21.6247 16.25 21.625C12.3049 21.625 8.52139 20.0579 5.73179 17.2682C2.94218 14.4786 1.375 10.6951 1.375 6.75004C1.37529 5.47341 1.84073 4.24062 2.68425 3.28236C3.52776 2.3241 4.69154 1.70602 5.95781 1.54379C6.14576 1.51964 6.33643 1.55795 6.50047 1.65282C6.66451 1.74768 6.79281 1.89384 6.86562 2.06879L9.06406 7.19847C9.12123 7.3301 9.14515 7.47377 9.1337 7.61683C9.12226 7.75988 9.07581 7.89792 8.99844 8.01879L7.17188 10.7969C7.09056 10.9226 7.04283 11.067 7.03325 11.2163C7.02368 11.3657 7.05258 11.515 7.11719 11.65V11.65Z" stroke="#008DD2" stroke-width="1.75" stroke-linecap="round" stroke-linejoin="round"/>
</svg>
